<?xml version="1.0" encoding="iso-8859-1"?>
<!-- Generator: Adobe Illustrator 19.0.0, SVG Export Plug-In . SVG Version: 6.00 Build 0)  -->
<svg version="1.1" id="Capa_1" xmlns="http://www.w3.org/2000/svg" xmlns:xlink="http://www.w3.org/1999/xlink" x="0px" y="0px"
	 viewBox="0 0 499.416 499.416" style="enable-background:new 0 0 499.416 499.416;" xml:space="preserve">
<g>
	<g>
		<path d="M473.096,425.308c-6.896-18.96-23.528-32.784-43.424-36.096l-64.968-10.832c19.536-8.112,35.776-22.536,46.304-40.672H424
			c13.232,0,24-10.768,24-24c13.232,0,24-10.768,24-24v-32c0-10.416-6.712-19.216-16-22.528v-25.472c0-70.576-57.424-128-128-128
			s-128,57.424-128,128v25.472c-9.288,3.312-16,12.112-16,22.528v32c0,13.232,10.768,24,24,24h27.16
			c7.584,29.296,28.592,53.232,56.136,64.672l-64.968,10.832c-19.888,3.312-36.52,17.144-43.424,36.096l-26.328,72.4h342.84
			L473.096,425.308z M389.56,398.748l-17.52,46.712l-32.952-21.968l19.896-29.84L389.56,398.748z M328,411.284l-18.248-27.368
			c5.92,1.144,12.008,1.792,18.248,1.792s12.328-0.648,18.248-1.792L328,411.284z M424,321.708h-5.6c0.928-2.616,1.736-5.288,2.44-8
			H432C432,318.116,428.416,321.708,424,321.708z M456,257.708v32c0,4.408-3.584,8-8,8v-24h-16v24h-8.408
			c0.224-2.648,0.408-5.296,0.408-8v-40h24C452.416,249.708,456,253.3,456,257.708z M208,297.708c-4.416,0-8-3.592-8-8v-32
			c0-4.408,3.584-8,8-8h24v40c0,2.704,0.184,5.352,0.408,8H208z M232,217.708v16h-16v-24c0-61.76,50.24-112,112-112
			s112,50.24,112,112v24h-16v-16h-8c-28.824,0-55.912-11.224-76.28-31.6L328,174.396l-11.72,11.712
			c-20.368,20.376-47.456,31.6-76.28,31.6H232z M248,289.708v-56.256c30.088-1.904,58.104-14.528,79.592-36.024L328,197.02
			l0.408,0.408c21.496,21.504,49.504,34.128,79.592,36.032v56.248c0,11.376-2.424,22.192-6.728,32H358.52
			c-3.312-9.288-12.112-16-22.528-16h-16c-13.232,0-24,10.768-24,24s10.768,24,24,24h16c10.416,0,19.216-6.712,22.528-16h33.32
			c-14.616,19.384-37.76,32-63.848,32C283.888,369.708,248,333.82,248,289.708z M344,329.708c0,4.408-3.584,8-8,8h-16
			c-4.416,0-8-3.592-8-8c0-4.408,3.584-8,8-8h16C340.416,321.708,344,325.3,344,329.708z M297.008,393.652l19.896,29.84
			l-32.952,21.968l-17.52-46.712L297.008,393.652z M431.752,455.764l-15.512,3.88l5.52,22.064H234.24l5.512-22.056l-15.512-3.88
			l-6.48,25.936h-38.336l18.512-50.928c4.928-13.536,16.816-23.416,31.016-25.784l21.392-3.568l25.696,68.528L328,435.324
			l51.952,34.632l25.696-68.528l21.392,3.568c14.2,2.368,26.088,12.248,31.016,25.784l18.52,50.928H438.24L431.752,455.764z"/>
	</g>
</g>
<g>
	<g>
		<circle cx="280" cy="257.708" r="8"/>
	</g>
</g>
<g>
	<g>
		<circle cx="376" cy="257.708" r="8"/>
	</g>
</g>
<g>
	<g>
		<path d="M104,97.708c-8.824,0-16-7.176-16-16s7.176-16,16-16s16,7.176,16,16h16c0-14.864-10.232-27.288-24-30.864V33.708H96
			v17.136c-13.768,3.576-24,16-24,30.864c0,17.648,14.352,32,32,32c8.824,0,16,7.176,16,16s-7.176,16-16,16s-16-7.176-16-16H72
			c0,14.864,10.232,27.288,24,30.864v17.136h16v-17.136c13.768-3.576,24-16,24-30.864C136,112.06,121.648,97.708,104,97.708z"/>
	</g>
</g>
<g>
	<g>
		<rect x="160" y="97.708" width="16" height="16"/>
	</g>
</g>
<g>
	<g>
		<rect x="32" y="97.708" width="16" height="16"/>
	</g>
</g>
<g>
	<g>
		<path d="M104,1.708c-57.344,0-104,46.656-104,104s46.656,104,104,104c24.944,0,49.072-8.968,67.928-25.256l-10.448-12.104
			c-15.968,13.776-36.368,21.36-57.48,21.36c-48.52,0-88-39.48-88-88s39.48-88,88-88s88,39.48,88,88
			c0,20.288-6.712,39.352-19.4,55.12l12.472,10.032C199.856,152.484,208,129.348,208,105.708C208,48.364,161.344,1.708,104,1.708z"
			/>
	</g>
</g>
<g>
</g>
<g>
</g>
<g>
</g>
<g>
</g>
<g>
</g>
<g>
</g>
<g>
</g>
<g>
</g>
<g>
</g>
<g>
</g>
<g>
</g>
<g>
</g>
<g>
</g>
<g>
</g>
<g>
</g>
</svg>
