<?xml version="1.0" encoding="iso-8859-1"?>
<!-- Generator: Adobe Illustrator 19.0.0, SVG Export Plug-In . SVG Version: 6.00 Build 0)  -->
<svg version="1.1" id="Capa_1" xmlns="http://www.w3.org/2000/svg" xmlns:xlink="http://www.w3.org/1999/xlink" x="0px" y="0px"
	 viewBox="0 0 389.378 389.378" style="enable-background:new 0 0 389.378 389.378;" xml:space="preserve">
<g>
	<g>
		<path d="M267.772,94.636C267.772,94.636,267.772,94.636,267.772,94.636h-146c-2.563,0-4.64,2.077-4.64,4.64v176.28
			c0,1.191,0.458,2.337,1.28,3.2l73,77.44c1.756,1.867,4.692,1.957,6.559,0.201c0.069-0.065,0.136-0.132,0.201-0.201l73-77.56
			c0.822-0.863,1.28-2.009,1.28-3.2v-176.2C272.43,96.674,270.334,94.614,267.772,94.636z M263.172,273.716l-68.4,72.48l-68.4-72.48
			v-169.84h136.8V273.716z"/>
	</g>
</g>
<g>
	<g>
		<path d="M331.491,12.476h-8.08c-2.125-8.759-10.948-14.137-19.707-12.013c-5.937,1.44-10.572,6.076-12.013,12.013H97.852
			C95.727,3.717,86.903-1.661,78.144,0.464c-5.937,1.44-10.572,6.076-12.013,12.013h-8.24c-9.035-0.002-16.361,7.322-16.363,16.357
			c-0.002,9.035,7.322,16.361,16.357,16.363c0.002,0,0.004,0,0.006,0h8.24c2.125,8.759,10.948,14.137,19.707,12.013
			c5.937-1.44,10.572-6.076,12.013-12.013h17.52v17.68h-12c-2.547,0.022-4.6,2.093-4.6,4.64v220.4c0,1.191,0.458,2.337,1.28,3.2
			l91.28,96.8c1.756,1.867,4.692,1.957,6.559,0.201c0.069-0.065,0.136-0.132,0.201-0.201l91.28-96.8
			c0.822-0.863,1.28-2.009,1.28-3.2v-220.4c0-2.563-2.077-4.64-4.64-4.64h-12v-17.68h17.52c2.125,8.759,10.948,14.137,19.707,12.013
			c5.937-1.44,10.572-6.076,12.013-12.013h8.24c9.035-0.002,16.359-7.327,16.357-16.363C347.847,19.8,340.525,12.478,331.491,12.476
			z M65.612,35.956h-7.72c-3.932,0-7.12-3.188-7.12-7.12c0.022-3.901,3.179-7.058,7.08-7.08h7.76V35.956z M81.992,48.456
			c-3.921,0-7.1-3.179-7.1-7.1v-25.04c0.022-3.901,3.179-7.058,7.08-7.08c3.901,0.022,7.058,3.179,7.08,7.08l0.04,25.04
			C89.092,45.278,85.913,48.456,81.992,48.456z M124.652,21.756h140.2v14.2h-140.2V21.756z M124.652,45.196h140.24v17.68h-140.24
			V45.196z M98.372,35.916v-14.16h17.04v14.2L98.372,35.916z M281.412,72.156v213.92l-86.64,91.84l-86.64-92V72.156H281.412z
			 M291.172,35.956h-17v-14.2h17V35.956z M314.772,41.356c0,3.921-3.179,7.1-7.1,7.1c-3.921,0-7.1-3.179-7.1-7.1v-25.04
			c0.022-3.901,3.179-7.058,7.08-7.08c3.917,0,7.098,3.163,7.12,7.08V41.356z M331.692,35.956l0.12-0.04h-7.88v-14.16h7.76
			c3.921,0,7.1,3.179,7.1,7.1C338.792,32.778,335.613,35.956,331.692,35.956z"/>
	</g>
</g>
<g>
</g>
<g>
</g>
<g>
</g>
<g>
</g>
<g>
</g>
<g>
</g>
<g>
</g>
<g>
</g>
<g>
</g>
<g>
</g>
<g>
</g>
<g>
</g>
<g>
</g>
<g>
</g>
<g>
</g>
</svg>
