<?xml version="1.0" encoding="iso-8859-1"?>
<!-- Generator: Adobe Illustrator 19.0.0, SVG Export Plug-In . SVG Version: 6.00 Build 0)  -->
<svg version="1.1" id="Layer_1" xmlns="http://www.w3.org/2000/svg" xmlns:xlink="http://www.w3.org/1999/xlink" x="0px" y="0px"
	 viewBox="0 0 512.001 512.001" style="enable-background:new 0 0 512.001 512.001;" xml:space="preserve">
<g>
	<g>
		<path d="M233.333,173.248h-34.324c-4.676,0-8.467,3.791-8.467,8.467s3.791,8.467,8.467,8.467h34.324
			c3.152,0,5.717,2.565,5.717,5.717v20.246c0,4.676,3.791,8.467,8.467,8.467s8.467-3.791,8.467-8.467v-20.246
			C255.983,183.409,245.822,173.248,233.333,173.248z"/>
	</g>
</g>
<g>
	<g>
		<path d="M312.704,173.248h-28.824c-4.677,0-8.467,3.791-8.467,8.467s3.79,8.467,8.467,8.467h28.824
			c4.677,0,8.467-3.791,8.467-8.467S317.381,173.248,312.704,173.248z"/>
	</g>
</g>
<g>
	<g>
		<path d="M270.266,250.111h-28.824c-4.676,0-8.467,3.791-8.467,8.467s3.791,8.467,8.467,8.467h28.824
			c4.677,0,8.467-3.791,8.467-8.467S274.943,250.111,270.266,250.111z"/>
	</g>
</g>
<g>
	<g>
		<path d="M413.794,494.717h-8.329V401.23c0-38.012-18.783-73.489-50.243-94.901c-7.022-4.779-14.475-8.722-22.27-11.809
			c21.079-19.131,34.347-45.439,37.111-73.85c14.688-6.743,24.521-21.666,24.521-38.156c0-15.631-8.855-29.885-22.304-37.062
			c0.085-1.206-5.198-85.035-5.198-85.035c-1.67-21.688-17.052-39.465-38.275-44.235l-71.09-15.976
			c-1.223-0.274-2.491-0.274-3.713,0l-71.09,15.976c-21.223,4.77-36.606,22.546-38.276,44.235c0,0-5.295,83.831-5.209,85.038
			c-13.446,7.178-22.3,21.431-22.3,37.061c0,16.488,9.83,31.411,24.517,38.153c2.765,28.411,16.033,54.721,37.113,73.853
			c-7.795,3.088-15.248,7.03-22.271,11.809c-31.452,21.407-50.23,56.884-50.23,94.901v93.486h-8.052
			c-4.676,0-8.467,3.791-8.467,8.467s3.791,8.467,8.467,8.467h16.519h89.623c0.761,0.225,1.565,0.35,2.399,0.35h98.214
			c0.834,0,1.638-0.125,2.399-0.35H397h16.796c4.677,0,8.467-3.791,8.467-8.467S418.471,494.717,413.794,494.717z M370.612,165.173
			c4.385,4.57,7.04,10.743,7.04,17.34c0,6.605-2.654,12.776-7.04,17.343V165.173z M141.101,199.852
			c-4.382-4.568-7.036-10.737-7.036-17.338c0-6.595,2.654-12.767,7.036-17.335V199.852z M325.097,32.705
			c13.921,3.127,24.008,14.787,25.106,29.013l2.629,34.139c-6.314-1.37-12.657-2.604-19.022-3.703l-1.606-31.519
			c-0.54-10.661-3.475-20.422-8.124-28.159L325.097,32.705z M315.292,61.493l1.429,28.034c-17.369-2.324-34.869-3.642-52.388-3.965
			V20.29l35.755,12.165C308.186,35.212,314.58,47.423,315.292,61.493z M196.43,61.495c0.721-14.07,7.115-26.283,15.2-29.039
			l35.769-12.167v65.273c-17.522,0.322-35.025,1.639-52.398,3.962L196.43,61.495z M161.524,61.717
			c1.095-14.226,11.184-25.886,25.106-29.014l1.023-0.23c-4.649,7.736-7.586,17.497-8.134,28.157l-1.608,31.52
			c-6.364,1.098-12.705,2.331-19.017,3.702L161.524,61.717z M156.324,142.967c0.007-0.086,0.012-0.172,0.016-0.257l1.384-29.259
			c64.345-14.728,131.921-14.728,196.266,0l1.385,29.259c0.003,0.086,0.009,0.172,0.016,0.257c0.251,3.215-1.246,6.138-4.004,7.819
			c-1.313,0.8-4.793,2.401-8.709-0.02c-26.038-16.098-56.06-24.607-86.819-24.607c-30.759,0-60.781,8.508-86.82,24.607
			c-3.917,2.423-7.394,0.821-8.708,0.02C157.57,149.105,156.073,146.183,156.324,142.967z M158.034,209.538v-41.476
			c6.651,1.824,13.835,0.861,19.907-2.892c23.361-14.442,50.305-22.077,77.916-22.077c27.611,0,54.554,7.634,77.916,22.077
			c4.087,2.526,8.678,3.79,13.27,3.79c2.231,0,4.463-0.303,6.637-0.899v41.477c0,31.791-15.444,61.533-41.379,79.889v-19.845
			c0-23.218-18.889-42.108-42.108-42.108h-28.674c-23.218,0-42.108,18.889-42.108,42.108v19.843
			C173.476,271.067,158.034,241.326,158.034,209.538z M266.591,306.775v-22.857c0-4.676-3.79-8.467-8.467-8.467
			c-4.676,0-8.467,3.791-8.467,8.467v23.235c-11.577-0.725-22.829-3.471-33.314-8.105v-29.467c0-13.881,11.292-25.174,25.174-25.174
			h28.674c13.881,0,25.174,11.292,25.174,25.174v29.463h-0.001C286.247,303.075,276.563,305.687,266.591,306.775z M282.372,321.197
			v29.327c0,14.623-11.895,26.518-26.518,26.518c-14.623,0-26.518-11.896-26.518-26.518v-29.327
			c8.621,2.039,17.508,3.097,26.52,3.097C264.866,324.294,273.75,323.237,282.372,321.197z M165.321,494.717h-42.128v-39.782h42.128
			V494.717z M165.321,438.001h-42.128v-9.031h42.128V438.001z M166.124,412.036h-42.931V401.23
			c0-32.407,16.009-62.652,42.824-80.903c5.74-3.906,11.82-7.145,18.164-9.724v60.838c0,6.98-2.575,13.677-7.25,18.859
			C171.362,396.473,167.658,403.991,166.124,412.036z M296.495,494.717h-81.281v-27.352h81.281V494.717z M296.495,450.431h-81.281
			v-10.16h81.281V450.431z M329.459,494.718h-16.03v-35.82v-27.094c0-4.676-3.79-8.467-8.467-8.467h-98.214
			c-4.676,0-8.467,3.791-8.467,8.467v27.094v35.819h-16.026v-74.214c0-6.98,2.575-13.678,7.25-18.859
			c7.487-8.299,11.61-19.024,11.61-30.201V310.4c3.672,1.998,7.441,3.786,11.289,5.362v34.761c0,23.96,19.493,43.451,43.451,43.451
			s43.451-19.493,43.451-43.451V315.76c3.848-1.576,7.617-3.365,11.292-5.363v61.046c0,11.177,4.123,21.903,11.61,30.201
			c4.676,5.183,7.251,11.881,7.251,18.859V494.718z M388.532,494.717h-42.14v-39.782h42.14V494.717z M388.532,438.001h-42.14v-9.031
			h42.14V438.001z M388.532,412.036h-42.943c-1.534-8.045-5.238-15.562-10.808-21.736c-4.675-5.182-7.25-11.879-7.25-18.859v-60.838
			c6.344,2.58,12.425,5.817,18.164,9.724c26.824,18.257,42.837,48.5,42.837,80.903V412.036z"/>
	</g>
</g>
<g>
	<g>
		<circle cx="212.223" cy="205.46" r="8.467"/>
	</g>
</g>
<g>
	<g>
		<circle cx="299.656" cy="205.46" r="8.467"/>
	</g>
</g>
<g>
</g>
<g>
</g>
<g>
</g>
<g>
</g>
<g>
</g>
<g>
</g>
<g>
</g>
<g>
</g>
<g>
</g>
<g>
</g>
<g>
</g>
<g>
</g>
<g>
</g>
<g>
</g>
<g>
</g>
</svg>
