<?xml version="1.0" encoding="iso-8859-1"?>
<!-- Generator: Adobe Illustrator 19.0.0, SVG Export Plug-In . SVG Version: 6.00 Build 0)  -->
<svg version="1.1" id="Capa_1" xmlns="http://www.w3.org/2000/svg" xmlns:xlink="http://www.w3.org/1999/xlink" x="0px" y="0px"
	 viewBox="0 0 512.03 512.03" style="enable-background:new 0 0 512.03 512.03;" xml:space="preserve">
<g transform="translate(-1 -1)">
	<path style="fill:#3F5C6C;" d="M513.03,257.027c0.072,91.514-48.78,176.087-128.088,221.749
		c-10.675,6.264-21.833,11.666-33.368,16.154c-24.55,9.821-50.501,15.691-76.888,17.39c-5.826,0.53-11.741,0.706-17.655,0.706
		c-5.914,0-11.829-0.177-17.655-0.707c-26.387-1.699-52.338-7.569-76.888-17.39c-11.535-4.488-22.693-9.89-33.368-16.154
		C21.493,416.694-26.016,286.295,16.449,169.53S179.092-16.65,301.454,4.91S513.031,132.78,513.03,257.027z"/>
	<g>
		<path style="fill:#AF8066;" d="M274.685,392.796V512.32c-5.826,0.53-11.741,0.707-17.655,0.707
			c-5.914,0-11.829-0.177-17.655-0.707V392.796H274.685z"/>
		<path style="fill:#AF8066;" d="M223.926,392.796l-61.44,102.135c-11.535-4.488-22.693-9.89-33.368-16.154l58.703-98.163
			L223.926,392.796z"/>
		<path style="fill:#AF8066;" d="M384.941,478.776c-10.675,6.264-21.833,11.666-33.368,16.154l-61.44-102.135l36.105-12.182
			L384.941,478.776z"/>
	</g>
	<path style="fill:#CBB292;" d="M62.823,18.682h388.414v317.793c0,9.751-7.905,17.655-17.655,17.655H80.478
		c-9.751,0-17.655-7.905-17.655-17.655V18.682z"/>
	<path style="fill:#7F5B53;" d="M186.409,354.131H327.65v26.483c0,9.751-7.904,17.655-17.655,17.655H204.064
		c-9.751,0-17.655-7.904-17.655-17.655V354.131z"/>
	<g>
		<path style="fill:#CC4B4C;" d="M325.064,241.959c-1.655-1.656-3.9-2.586-6.241-2.586s-4.586,0.93-6.241,2.586l-11.414,11.414
			l-11.414-11.414c-3.453-3.41-9.012-3.392-12.443,0.039s-3.449,8.99-0.039,12.443l11.414,11.414l-11.414,11.414
			c-2.253,2.225-3.142,5.487-2.328,8.547c0.813,3.06,3.204,5.451,6.264,6.264c3.061,0.813,6.322-0.076,8.547-2.329l11.414-11.414
			l11.414,11.414c3.453,3.41,9.012,3.392,12.443-0.039c3.432-3.432,3.449-8.99,0.039-12.443l-11.414-11.414l11.414-11.414
			c1.656-1.655,2.586-3.9,2.586-6.241C327.65,245.859,326.72,243.614,325.064,241.959z"/>
		<path style="fill:#CC4B4C;" d="M144.857,192.648c1.655,1.656,3.9,2.586,6.241,2.586s4.586-0.93,6.241-2.586l11.414-11.414
			l11.414,11.414c3.453,3.41,9.012,3.392,12.443-0.039c3.432-3.432,3.449-8.99,0.039-12.443l-11.414-11.414l11.414-11.414
			c3.41-3.453,3.392-9.012-0.039-12.443c-3.432-3.432-8.99-3.449-12.443-0.039l-11.414,11.414l-11.414-11.414
			c-3.453-3.41-9.012-3.392-12.443,0.039c-3.432,3.432-3.449,8.99-0.039,12.443l11.414,11.414l-11.414,11.414
			c-1.656,1.655-2.586,3.9-2.586,6.241C142.271,188.748,143.202,190.993,144.857,192.648z"/>
	</g>
	<path style="fill:#E6E7E8;" d="M292.555,179.01c1.22,3.573,4.578,5.975,8.353,5.974c0.972-0.002,1.937-0.162,2.858-0.474
		c4.612-1.577,7.073-6.595,5.496-11.207l-8.569-25.06c-0.064-0.186-0.215-0.321-0.291-0.501c-0.245-0.544-0.545-1.062-0.896-1.544
		c-0.961-1.142-2.063-2.158-3.279-3.024c-0.185-0.09-0.396-0.079-0.585-0.156c-0.186-0.077-0.316-0.227-0.51-0.292
		c-0.361-0.07-0.727-0.116-1.095-0.137c-0.576-0.134-1.165-0.207-1.757-0.22c-0.601,0.016-1.198,0.096-1.781,0.238
		c-0.342,0.026-0.682,0.071-1.018,0.136l-25.056,8.569c-4.613,1.578-7.074,6.598-5.496,11.211c1.578,4.613,6.598,7.074,11.211,5.496
		l4.255-1.456c-14.942,22.797-37.664,39.382-63.932,46.663c-67.413,19.267-68.194,95.991-68.194,96.767
		c0,4.875,3.952,8.828,8.828,8.828c4.875,0,8.828-3.952,8.828-8.828c0-0.638,0.634-64.147,55.392-79.785
		c31.342-8.641,58.286-28.759,75.474-56.355L292.555,179.01z"/>
	<path style="fill:#14A085;" d="M394.34,73.131c-1.947-1.3-4.332-1.773-6.628-1.314c-2.296,0.459-4.316,1.813-5.613,3.762
		l-29.336,44.009l-10.043-10.043c-3.456-3.394-9.001-3.369-12.426,0.056s-3.45,8.97-0.056,12.426l17.655,17.655
		c1.655,1.656,3.9,2.587,6.241,2.586c0.289,0,0.578-0.018,0.871-0.043c2.631-0.261,5.007-1.688,6.474-3.888l35.31-52.966
		C399.491,81.316,398.395,75.836,394.34,73.131z"/>
	<path style="fill:#7F5B53;" d="M45.168,1.027h423.724c9.751,0,17.655,7.904,17.655,17.655l0,0c0,9.751-7.904,17.655-17.655,17.655
		H45.168c-9.751,0-17.655-7.904-17.655-17.655l0,0C27.512,8.932,35.417,1.027,45.168,1.027z"/>
</g>
<g>
</g>
<g>
</g>
<g>
</g>
<g>
</g>
<g>
</g>
<g>
</g>
<g>
</g>
<g>
</g>
<g>
</g>
<g>
</g>
<g>
</g>
<g>
</g>
<g>
</g>
<g>
</g>
<g>
</g>
</svg>
