<svg xmlns="http://www.w3.org/2000/svg" xmlns:xlink="http://www.w3.org/1999/xlink" viewBox="0 0 400 400"><defs><style>.cls-1{fill:url(#Безымянный_градиент_21);}.cls-2{fill:url(#Безымянный_градиент_21-2);}.cls-3{fill:url(#Безымянный_градиент_21-3);}.cls-4{fill:url(#Безымянный_градиент_21-4);}.cls-5{fill:url(#Безымянный_градиент_21-5);}.cls-6{fill:url(#Безымянный_градиент_21-6);}.cls-7{fill:url(#Безымянный_градиент_21-7);}.cls-8{fill:#89715c;}</style><radialGradient id="Безымянный_градиент_21" cx="76.08" cy="196.5" r="11.47" gradientUnits="userSpaceOnUse"><stop offset="0" stop-color="#de7b1c"/><stop offset="1" stop-color="#cb8039"/></radialGradient><radialGradient id="Безымянный_градиент_21-2" cx="118.45" cy="196.5" r="12.07" xlink:href="#Безымянный_градиент_21"/><radialGradient id="Безымянный_градиент_21-3" cx="161.02" cy="196.5" r="11.58" xlink:href="#Безымянный_градиент_21"/><radialGradient id="Безымянный_градиент_21-4" cx="201.35" cy="196.5" r="11.56" xlink:href="#Безымянный_градиент_21"/><radialGradient id="Безымянный_градиент_21-5" cx="239.33" cy="196.5" r="10.66" xlink:href="#Безымянный_градиент_21"/><radialGradient id="Безымянный_градиент_21-6" cx="279.52" cy="196.5" r="12.82" xlink:href="#Безымянный_градиент_21"/><radialGradient id="Безымянный_градиент_21-7" cx="323.65" cy="196.5" r="11.58" xlink:href="#Безымянный_градиент_21"/></defs><title>Пантеон</title><g id="Слой_2" data-name="Слой 2"><path class="cls-1" d="M85.58,183.61v25.78a.25.25,0,0,1-.25.25h-2.9a.25.25,0,0,1-.25-.25V186.45a.25.25,0,0,0-.25-.25H70.22a.26.26,0,0,0-.25.25v22.94a.25.25,0,0,1-.25.25H66.83a.25.25,0,0,1-.25-.25V183.61a.25.25,0,0,1,.25-.25h18.5A.25.25,0,0,1,85.58,183.61Z"/><path class="cls-2" d="M113.64,201.55,111,209.47a.25.25,0,0,1-.24.17h-3a.25.25,0,0,1-.23-.33l8.76-25.78a.23.23,0,0,1,.23-.17h3.74a.25.25,0,0,1,.24.17l8.8,25.78a.26.26,0,0,1-.24.33H126a.25.25,0,0,1-.23-.17l-2.7-7.93a.25.25,0,0,0-.23-.17h-9A.24.24,0,0,0,113.64,201.55Zm8.32-2.83a.25.25,0,0,0,.24-.33l-2.46-7.23c-.47-1.38-.84-2.66-1.17-3.9a.25.25,0,0,0-.48,0c-.29,1.06-.78,2.81-1.12,3.87l-2.46,7.27a.24.24,0,0,0,.23.33Z"/><path class="cls-3" d="M154.64,183.61V194.1a.25.25,0,0,0,.25.25h12.22a.25.25,0,0,0,.25-.25V183.61a.25.25,0,0,1,.25-.25h2.93a.25.25,0,0,1,.25.25v25.78a.25.25,0,0,1-.25.25h-2.93a.25.25,0,0,1-.25-.25V197.57a.25.25,0,0,0-.25-.25H154.89a.25.25,0,0,0-.25.25v11.82a.25.25,0,0,1-.25.25H151.5a.25.25,0,0,1-.25-.25V183.61a.25.25,0,0,1,.25-.25h2.89A.25.25,0,0,1,154.64,183.61Z"/><path class="cls-4" d="M199.36,186.24h-7.49a.25.25,0,0,1-.25-.25v-2.38a.25.25,0,0,1,.25-.25h19a.25.25,0,0,1,.25.25V186a.25.25,0,0,1-.25.25h-7.54a.25.25,0,0,0-.25.25v22.9a.25.25,0,0,1-.25.25h-2.93a.25.25,0,0,1-.25-.25v-22.9A.25.25,0,0,0,199.36,186.24Z"/><path class="cls-5" d="M245.3,197.32h-9.72a.25.25,0,0,0-.25.25v9a.26.26,0,0,0,.25.25h10.89a.25.25,0,0,1,.25.25v2.34a.25.25,0,0,1-.25.25H232.19a.25.25,0,0,1-.25-.25V183.61a.25.25,0,0,1,.25-.25h13.7a.25.25,0,0,1,.25.25V186a.25.25,0,0,1-.25.25H235.58a.26.26,0,0,0-.25.25v7.81a.25.25,0,0,0,.25.25h9.72a.25.25,0,0,1,.25.25v2.31A.25.25,0,0,1,245.3,197.32Z"/><path class="cls-6" d="M291.53,196.23c0,9-5.5,13.84-12.2,13.84-6.95,0-11.82-5.38-11.82-13.34,0-8.34,5.19-13.8,12.21-13.8S291.53,188.43,291.53,196.23Zm-20.38.43c.13,5.27,3,10.64,8.37,10.64s8.33-4.37,8.4-10.92-2.71-10.68-8.36-10.68S271,190.93,271.15,196.66Z"/><path class="cls-7" d="M317.27,183.61V194.1a.25.25,0,0,0,.25.25h12.22a.25.25,0,0,0,.25-.25V183.61a.25.25,0,0,1,.25-.25h2.93a.25.25,0,0,1,.25.25v25.78a.25.25,0,0,1-.25.25h-2.93a.25.25,0,0,1-.25-.25V197.57a.25.25,0,0,0-.25-.25H317.52a.25.25,0,0,0-.25.25v11.82a.25.25,0,0,1-.25.25h-2.89a.25.25,0,0,1-.25-.25V183.61a.25.25,0,0,1,.25-.25H317A.25.25,0,0,1,317.27,183.61Z"/><path class="cls-8" d="M81,75.25v6.5a.25.25,0,0,0,.25.25H89.5a20,20,0,0,1,20,20v71.75a.25.25,0,0,0,.25.25h32.5a.25.25,0,0,0,.25-.25V102a20,20,0,0,1,20-20h75a20,20,0,0,1,20,20v71.75a.25.25,0,0,0,.25.25h32.5a.25.25,0,0,0,.25-.25V102a20,20,0,0,1,20-20h8.25a.25.25,0,0,0,.25-.25v-6.5a.25.25,0,0,0-.25-.25H81.25A.25.25,0,0,0,81,75.25Z"/><path class="cls-8" d="M290.5,298V219.25a.25.25,0,0,0-.25-.25h-32.5a.25.25,0,0,0-.25.25V298a20,20,0,0,1-20,20h-8.25a.25.25,0,0,0-.25.25v6.5a.25.25,0,0,0,.25.25h89.5a.25.25,0,0,0,.25-.25v-6.5a.25.25,0,0,0-.25-.25H310.5A20,20,0,0,1,290.5,298Z"/><path class="cls-8" d="M142.25,219h-32.5a.25.25,0,0,0-.25.25V298a20.06,20.06,0,0,1-20,20H81.25a.25.25,0,0,0-.25.25v6.5a.25.25,0,0,0,.25.25h89.5a.25.25,0,0,0,.25-.25v-6.5a.25.25,0,0,0-.25-.25H162.5a20,20,0,0,1-20-20V219.25A.25.25,0,0,0,142.25,219Z"/></g></svg>