<?xml version="1.0" encoding="utf-8"?>
<!-- Generator: Adobe Illustrator 21.1.0, SVG Export Plug-In . SVG Version: 6.00 Build 0)  -->
<svg version="1.1" id="Слой_1" xmlns="http://www.w3.org/2000/svg" xmlns:xlink="http://www.w3.org/1999/xlink" x="0px" y="0px"
	 viewBox="0 0 147.8 147.8" style="enable-background:new 0 0 147.8 147.8;" xml:space="preserve">
<style type="text/css">
	.st0{fill:#58493E;}
	.st1{fill:#7BC0DD;}
	.st2{fill:#948E8C;}
</style>
<g>
	<circle class="st0" cx="73.9" cy="73.9" r="73.9"/>
	<g>
		<path class="st1" d="M34.9,44.4c-1.6-3-3-5.5-4.4-8.2c1.7-1.6,3.2-2.9,4.7-4.4c2.7,1.3,5.2,2.6,7.8,3.9c2.2-1.4,4.4-2.8,7-4.5
			c-0.4-2.7-0.7-5.4-1.1-8.5c1.8-0.9,3.5-1.8,5.6-2.8c2,2.4,3.8,4.6,5.8,7c2.5-0.5,4.9-1,8-1.5c0.9-2.6,1.9-5.4,2.9-8.3
			c2.1,0,3.8,0,5.7,0c3.4,7.2,1.7,14.8,2.2,22.6c-1.7,0.1-3.2,0.3-4.6,0.2C59.4,39.1,42.9,50.3,39.4,68
			c-2.5,12.9,0.5,26.5,13.3,35.6c0.2-0.1,0.3-0.1,0.5-0.2c0.1-0.1,0.3-0.2,0.3-0.3c0-10.3,0-20.6,0-31.3c-1-0.4-2.3-0.9-3.6-1.4
			c0.2-0.6,0.2-1.2,0.5-1.4c3.1-2.2,6.3-4.3,9.6-6.6c0-2.5,0-5,0-7.9c1.9-0.2,3.5-0.3,5.2-0.5c0.4,1.5,0.8,2.7,1.2,4
			c0.5-0.2,1-0.3,1.4-0.5c0.6-0.4,1-0.9,1.6-1.2c4.3-3,4.6-3,9.6,0.4c0.1,22.9,0,46.1,0,69.5c-2.6,0-3,0.1-3,0c0-2,0-2.3,0-3
			c-0.1-3,0-6,0-9c0-12.7,0-25.3,0-38c0-1.7,0-3.3,0-5.3c-1.4,0-2.6,0-4.2,0c0,6.7,0,13,0,19.4c0,10.3,0,20.7,0,31
			c0,1.2,0,3.5,0,4.8c0,0.2-0.5,0.1-3.2,0.2c-0.1-4.4,0-8.9,0-13.2c0-4.5,0-9,0-13.5c0-4.5,0-8.9,0-14.1c-1.9,0.2-3.2,0.3-4.6,0.5
			c0,12.8,0,25.2,0,37.8c-1.5,0.3-2.9,0.6-4.5,1c-1.4,1.8-2.9,3.7-4.6,6c-1.9-0.6-3.8-1.2-6.1-2c0.2-2.7,0.3-5.2,0.5-8.6
			c-1.7-1.3-4-3.1-6.6-5.1c-2.5,1.4-4.9,2.7-7.5,4.1c-1.5-1.2-2.9-2.3-4.3-3.3c-0.9-3.8,2.8-5.6,3.4-8.8c-1.4-2.1-2.8-4.3-4.3-6.6
			c-2.9,0-5.9,0-9.2,0c-0.7-1.6-1.4-3.2-2.1-5.1c2.5-2,4.8-3.8,7.2-5.8c-0.5-2.5-1-4.9-1.5-7.7c-2.6-0.8-5.4-1.7-8.3-2.6
			c0-2.1,0-4,0-6.3c2.7-1,5.5-2,8.3-3.1c0.5-2.5,1-4.9,1.6-7.7c-2.1-1.6-4.3-3.2-7-5.2c0.8-2,1.6-4.1,2.6-6.6
			c2.8,0.2,5.3,0.5,8.6,0.7C31.5,48.9,33.2,46.7,34.9,44.4z"/>
		<path class="st2" d="M122.1,61.4c0,0.8,0,1.1,0,1.5c0.4,5,2.2,8.8,8.1,9c0.4,0,0.8,0.5,1.5,0.9c0,1.6,0,3.4,0,5.7
			c-5.9,1-10.3,3.6-9.1,11.3c1.3,1,3.3,2.4,5.7,4.2c-0.5,1.8-0.9,3.7-1.5,5.9c-3,0-6,0-8.9,0c-1.7,2.6-3.3,4.9-5,7.3
			c1.4,2.3,2.7,4.5,4.4,7.3c-1.4,1.2-2.7,2.4-4.3,3.7c-2.4-1.1-4.9-2.3-7.4-3.5c-2.6,1.7-4.9,3.3-7.5,5c0.2,1.3,0.4,2.5,0.6,3.8
			c0.2,1.3,0.3,2.6,0.6,4.2c-1.9,1-3.6,1.8-5.6,2.9c-1.7-2.2-3.2-4.1-5-6.3c-0.9-0.1-2.2-0.3-3.5-0.5c-0.3-0.5-0.7-0.9-0.7-1.4
			c-0.1-3-0.1-6-0.1-9c0-16,0-32,0-48c0-1.3,0.2-2.6,0.3-4.4c5.2,2.3,9,5.5,13.6,8.4c-1.6,0.7-2.6,1.1-4.1,1.8c0,10.9,0,21.9,0,33.2
			c11.1-5.3,17.5-20.9,15.1-35.1c-2.4-14.6-11.8-23.3-24.7-28.6c0-4.6,0-8.7,0-13.2c4.8,0.4,5.9-4.1,9-6.8c1.7,0.6,3.5,1.2,5.7,2
			c-0.4,3-0.7,5.7-1.1,8.7c2.6,1.7,5.1,3.3,7.8,5c2.4-1.4,4.7-2.6,7.3-4.1c1.3,1.1,2.7,2.3,4.4,3.8c-1.5,2.7-2.9,5.2-4.4,8
			c1.5,2.2,3,4.5,4.7,7.1c2.8-0.1,5.5-0.3,8.6-0.4c0.7,1.7,1.3,3.3,2,5C125.9,57.8,123.9,59.7,122.1,61.4z"/>
	</g>
</g>
</svg>
