<svg xmlns="http://www.w3.org/2000/svg" style="display:none"><symbol id="analis" viewBox="0 0 512 512"><path d="M505.418 34.829a7.537 7.537 0 0 0-5.123-2.654l-111.428-9.517-2.02-16.058c-.52-4.131-4.299-7.059-8.42-6.54L275.06 13.056a7.502 7.502 0 0 0-1.258-.223L131.726.697c-4.091-.36-7.805 2.786-8.153 6.869l-2.118 24.8L11.406 46.202c-4.072.512-7.051 4.345-6.54 8.42L61.04 501.43c.255 2.038-.182 3.996.651 5.967 1.168 2.761 3.948 4.604 6.947 4.604h369.909a7.537 7.537 0 0 0 7.539-7.539v-9.819l14.601 1.247c4.091.355 7.805-2.784 8.153-6.869L507.163 40.33a7.536 7.536 0 0 0-1.745-5.501zM61.099 381.023L20.768 60.221l40.331-5.07v325.872zm76.856-364.661l65.98 5.635-67.182 8.447 1.202-14.082zm234.873-.401l3.852 30.637H129.129l243.699-30.637zm81.631 464.264l-8.373-.715V259.195c0-4.164-3.374-7.539-7.539-7.539s-7.539 3.374-7.539 7.539v237.727H76.177V61.676h354.832v162.338c0 4.165 3.374 7.539 7.539 7.539s7.539-3.374 7.539-7.539V54.137a7.538 7.538 0 0 0-7.539-7.539h-46.671l-1.087-8.643 100.709 8.602-37.04 433.668z"/><path d="M398.34 86.806h-40.208a7.534 7.534 0 0 0-6.272 3.357l-17.064 25.596c-18.367-13.157-40.854-20.912-65.12-20.912a7.538 7.538 0 0 0-7.539 7.539v104.54a7.538 7.538 0 0 0 7.539 7.539h104.54a7.537 7.537 0 0 0 7.539-7.539c0-32.097-13.566-61.081-35.26-81.533l15.673-23.509h36.173a7.539 7.539 0 1 0-.001-15.078zm-31.953 112.581h-89.172v-89.172c18.283 1.412 35.15 7.932 49.206 18.107l-6.727 10.091c-2.101 3.15-1.485 7.513 1.417 9.95 3.398 2.854 8.669 2.101 11.128-1.586l5.757-8.636c16.029 15.922 26.547 37.386 28.391 61.246z"/><path d="M398.34 336.092h-68.195l-12.016-19.225c19.465-20.17 31.459-47.598 31.459-77.775a7.537 7.537 0 0 0-7.539-7.539h-97.001v-97.001a7.539 7.539 0 0 0-7.539-7.539c-61.8 0-112.079 50.279-112.079 112.079 0 61.8 50.279 112.079 112.079 112.079 26.123 0 50.185-8.984 69.264-24.023l12.8 20.48a7.54 7.54 0 0 0 6.393 3.543h72.374c4.164 0 7.539-3.374 7.539-7.539s-3.375-7.54-7.539-7.54zm-106.187-60.788a7.537 7.537 0 0 0-10.389-2.398 7.539 7.539 0 0 0-2.398 10.389l19.364 30.982c-16.709 13.631-38.026 21.817-61.22 21.817-53.486 0-97.001-43.515-97.001-97.001 0-50.95 39.485-92.851 89.462-96.711v96.711a7.539 7.539 0 0 0 7.539 7.539h96.711c-1.684 21.801-10.608 41.604-24.362 57.004l-17.706-28.332zM173.177 376.3h-64.332c-4.163 0-7.539 3.374-7.539 7.539s3.375 7.539 7.539 7.539h64.332c4.164 0 7.539-3.374 7.539-7.539s-3.375-7.539-7.539-7.539zM269.676 376.3h-64.332c-4.164 0-7.539 3.374-7.539 7.539s3.375 7.539 7.539 7.539h64.332c4.164 0 7.539-3.374 7.539-7.539s-3.375-7.539-7.539-7.539zM213.385 416.508h-104.54a7.539 7.539 0 0 0-7.539 7.539 7.538 7.538 0 0 0 7.539 7.539h104.54a7.538 7.538 0 0 0 7.539-7.539 7.539 7.539 0 0 0-7.539-7.539zM269.676 416.508h-24.125a7.539 7.539 0 0 0-7.539 7.539 7.538 7.538 0 0 0 7.539 7.539h24.125a7.538 7.538 0 0 0 7.539-7.539 7.539 7.539 0 0 0-7.539-7.539zM141.011 456.715h-32.166c-4.163 0-7.539 3.374-7.539 7.539s3.375 7.539 7.539 7.539h32.166c4.164 0 7.539-3.374 7.539-7.539s-3.375-7.539-7.539-7.539zM269.676 456.715h-96.498c-4.163 0-7.539 3.374-7.539 7.539s3.375 7.539 7.539 7.539h96.498c4.164 0 7.539-3.374 7.539-7.539s-3.375-7.539-7.539-7.539z"/></symbol><symbol id="callcenter" viewBox="0 0 499.416 499.416"><path d="M473.096 425.308c-6.896-18.96-23.528-32.784-43.424-36.096l-64.968-10.832c19.536-8.112 35.776-22.536 46.304-40.672H424c13.232 0 24-10.768 24-24 13.232 0 24-10.768 24-24v-32c0-10.416-6.712-19.216-16-22.528v-25.472c0-70.576-57.424-128-128-128s-128 57.424-128 128v25.472c-9.288 3.312-16 12.112-16 22.528v32c0 13.232 10.768 24 24 24h27.16c7.584 29.296 28.592 53.232 56.136 64.672l-64.968 10.832c-19.888 3.312-36.52 17.144-43.424 36.096l-26.328 72.4h342.84l-26.32-72.4zm-83.536-26.56l-17.52 46.712-32.952-21.968 19.896-29.84 30.576 5.096zM328 411.284l-18.248-27.368c5.92 1.144 12.008 1.792 18.248 1.792s12.328-.648 18.248-1.792L328 411.284zm96-89.576h-5.6a96.295 96.295 0 0 0 2.44-8H432c0 4.408-3.584 8-8 8zm32-64v32c0 4.408-3.584 8-8 8v-24h-16v24h-8.408c.224-2.648.408-5.296.408-8v-40h24c4.416 0 8 3.592 8 8zm-248 40c-4.416 0-8-3.592-8-8v-32c0-4.408 3.584-8 8-8h24v40c0 2.704.184 5.352.408 8H208zm24-80v16h-16v-24c0-61.76 50.24-112 112-112s112 50.24 112 112v24h-16v-16h-8c-28.824 0-55.912-11.224-76.28-31.6L328 174.396l-11.72 11.712c-20.368 20.376-47.456 31.6-76.28 31.6h-8zm16 72v-56.256c30.088-1.904 58.104-14.528 79.592-36.024l.408-.408.408.408c21.496 21.504 49.504 34.128 79.592 36.032v56.248c0 11.376-2.424 22.192-6.728 32H358.52c-3.312-9.288-12.112-16-22.528-16h-16c-13.232 0-24 10.768-24 24s10.768 24 24 24h16c10.416 0 19.216-6.712 22.528-16h33.32c-14.616 19.384-37.76 32-63.848 32-44.104 0-79.992-35.888-79.992-80zm96 40c0 4.408-3.584 8-8 8h-16c-4.416 0-8-3.592-8-8 0-4.408 3.584-8 8-8h16c4.416 0 8 3.592 8 8zm-46.992 63.944l19.896 29.84-32.952 21.968-17.52-46.712 30.576-5.096zm134.744 62.112l-15.512 3.88 5.52 22.064H234.24l5.512-22.056-15.512-3.88-6.48 25.936h-38.336l18.512-50.928c4.928-13.536 16.816-23.416 31.016-25.784l21.392-3.568 25.696 68.528L328 435.324l51.952 34.632 25.696-68.528 21.392 3.568c14.2 2.368 26.088 12.248 31.016 25.784l18.52 50.928H438.24l-6.488-25.944z"/><circle cx="280" cy="257.708" r="8"/><circle cx="376" cy="257.708" r="8"/><path d="M104 97.708c-8.824 0-16-7.176-16-16s7.176-16 16-16 16 7.176 16 16h16c0-14.864-10.232-27.288-24-30.864V33.708H96v17.136c-13.768 3.576-24 16-24 30.864 0 17.648 14.352 32 32 32 8.824 0 16 7.176 16 16s-7.176 16-16 16-16-7.176-16-16H72c0 14.864 10.232 27.288 24 30.864v17.136h16v-17.136c13.768-3.576 24-16 24-30.864 0-17.648-14.352-32-32-32zM160 97.708h16v16h-16zM32 97.708h16v16H32z"/><path d="M104 1.708c-57.344 0-104 46.656-104 104s46.656 104 104 104c24.944 0 49.072-8.968 67.928-25.256l-10.448-12.104a87.993 87.993 0 0 1-57.48 21.36c-48.52 0-88-39.48-88-88s39.48-88 88-88 88 39.48 88 88c0 20.288-6.712 39.352-19.4 55.12l12.472 10.032C199.856 152.484 208 129.348 208 105.708c0-57.344-46.656-104-104-104z"/></symbol><symbol id="control" viewBox="0 0 503.607 503.607"><path d="M478.426 417.993c-50.095-26.565-88.52-41.461-122.727-47.172l3.54-4.867c1.679-1.679 2.518-4.197 1.679-6.715l-7.866-31.463c20.804-29.41 33.046-66.178 33.046-101.153v-33.574h25.18c5.036 0 8.393-3.357 8.393-8.393s-3.357-8.393-8.393-8.393h-8.393v-8.393c0-66.308-43.646-122.544-109.115-141.01v-1.68C293.77 11.75 282.859 0 268.59 0h-33.574c-13.43 0-25.18 10.911-25.18 25.18v1.679c-65.469 18.466-109.115 74.702-109.115 141.01v8.393h-8.393c-5.036 0-8.393 3.357-8.393 8.393s3.357 8.393 8.393 8.393h25.18v33.574c0 34.975 12.242 71.743 33.046 101.154l-7.866 31.463c0 1.679 0 5.036 1.679 6.715l3.54 4.867c-34.206 5.712-72.632 20.607-122.727 47.172C9.233 425.548 0 441.495 0 459.121v36.092c0 5.036 3.357 8.393 8.393 8.393H495.213c5.036 0 8.393-3.357 8.393-8.393v-36.092c.001-16.787-10.072-32.734-25.18-41.128zm-231.656-7.769l5.081-11.432 12.545 27.6 8.205 18.46H231.66l15.11-34.628zm-21.49 51.415h52.983l4.796 25.18h-62.815l5.036-25.18zm114.654-117.508l3.357 15.108-8.574 11.773a7.48 7.48 0 0 0-1.498 1.656l-34.912 48.34-11.078 15.211-22.628-50.913c27.048-3.299 51.193-16.877 70.694-36.39.216-.214.433-.426.648-.642l.156-.159a154.457 154.457 0 0 0 3.835-3.984zM328.999 61.389c.932.62 1.856 1.25 2.77 1.892 10.699 7.973 20.575 17.313 28.31 27.368l-38.61 7.554 7.53-36.814zM182.138 98.203l-38.61-7.554c7.735-10.056 17.612-19.396 28.311-27.369.913-.641 1.837-1.271 2.769-1.891l7.53 36.814zm-64.63 69.666c0-22.335 5.623-43.406 15.8-61.82l58.063 11.46h1.679c2.518 0 4.197-.839 6.715-1.679 2.518-1.679 3.357-5.036 2.518-7.554l-11.523-56.08a139.223 139.223 0 0 1 19.077-7.49v22.442c0 5.036 3.357 8.393 8.393 8.393s8.393-3.357 8.393-8.393V25.18c0-4.197 3.357-8.393 8.393-8.393h33.574c4.197 0 8.393 3.357 8.393 8.393v41.967c0 5.036 3.357 8.393 8.393 8.393 5.036 0 8.393-3.357 8.393-8.393V44.706a139.091 139.091 0 0 1 19.685 7.779l-11.291 54.952c0 2.518.839 5.875 2.518 7.554s3.357 2.518 5.875 2.518h1.679l57.687-12.145c10.416 18.576 16.175 39.894 16.175 62.505v8.393H117.509v-8.393zm16.787 25.18h235.016v33.574c0 36.599-12.555 69.122-31.405 93.843l-.49.163-2.518 2.518c-4.223 5.631-8.68 10.765-13.337 15.394-19.763 18.412-43.336 29.564-66.05 30.669-1.143-.491-2.425-.738-3.708-.738-1.29 0-2.453.253-3.496.749-13.904-.638-28.134-5.045-41.623-12.584-13.665-7.851-26.52-19.169-37.977-33.49l-2.518-2.518-.49-.163c-18.85-24.722-31.405-57.245-31.405-93.843v-33.574zm104.71 192.259l-22.628 50.913-11.078-15.211-34.912-48.34a15.02 15.02 0 0 0-.869-.793l-9.203-12.637 3.357-15.108a153.17 153.17 0 0 0 3.457 3.594c19.704 20.151 44.279 34.216 71.876 37.582zM16.787 459.121c0-10.911 5.875-20.984 15.948-26.02 53.501-28.423 92.015-42.688 126.323-46.949l50.088 68.87-6.359 31.796h-186v-27.697zM486.82 486.82H300.821l-6.359-31.796 50.63-69.616c34.188 5.159 73.391 19.413 125.78 46.855 10.072 5.875 15.948 15.948 15.948 26.859v27.698z"/></symbol><symbol id="flag" viewBox="0 0 389.378 389.378"><path d="M267.772 94.636h-146a4.64 4.64 0 0 0-4.64 4.64v176.28a4.64 4.64 0 0 0 1.28 3.2l73 77.44a4.64 4.64 0 0 0 6.76 0l73-77.56a4.64 4.64 0 0 0 1.28-3.2v-176.2a4.64 4.64 0 0 0-4.68-4.6zm-4.6 179.08l-68.4 72.48-68.4-72.48v-169.84h136.8v169.84z"/><path d="M331.491 12.476h-8.08C321.286 3.717 312.463-1.661 303.704.463a16.322 16.322 0 0 0-12.013 12.013H97.852C95.727 3.717 86.903-1.661 78.144.464a16.322 16.322 0 0 0-12.013 12.013h-8.24c-9.035-.002-16.361 7.322-16.363 16.357-.002 9.035 7.322 16.361 16.357 16.363h8.246c2.125 8.759 10.948 14.137 19.707 12.013a16.322 16.322 0 0 0 12.013-12.013h17.52v17.68h-12a4.64 4.64 0 0 0-4.6 4.64v220.4a4.64 4.64 0 0 0 1.28 3.2l91.28 96.8a4.64 4.64 0 0 0 6.76 0l91.28-96.8a4.64 4.64 0 0 0 1.28-3.2v-220.4a4.64 4.64 0 0 0-4.64-4.64h-12v-17.68h17.52c2.125 8.759 10.948 14.137 19.707 12.013a16.322 16.322 0 0 0 12.013-12.013h8.24c9.035-.002 16.359-7.327 16.357-16.363-.001-9.034-7.323-16.356-16.357-16.358zM65.612 35.956h-7.72a7.12 7.12 0 0 1-7.12-7.12 7.12 7.12 0 0 1 7.08-7.08h7.76v14.2zm16.38 12.5a7.1 7.1 0 0 1-7.1-7.1v-25.04a7.12 7.12 0 0 1 7.08-7.08 7.12 7.12 0 0 1 7.08 7.08l.04 25.04a7.1 7.1 0 0 1-7.1 7.1zm42.66-26.7h140.2v14.2h-140.2v-14.2zm0 23.44h140.24v17.68h-140.24v-17.68zm-26.28-9.28v-14.16h17.04v14.2l-17.04-.04zm183.04 36.24v213.92l-86.64 91.84-86.64-92V72.156h173.28zm9.76-36.2h-17v-14.2h17v14.2zm23.6 5.4a7.1 7.1 0 0 1-14.2 0v-25.04a7.12 7.12 0 0 1 7.08-7.08 7.12 7.12 0 0 1 7.12 7.08v25.04zm16.92-5.4l.12-.04h-7.88v-14.16h7.76a7.1 7.1 0 0 1 0 14.2z"/></symbol><symbol id="gift" viewBox="0 0 504.124 504.124"><path d="M15.754 133.909l236.308 118.154L488.37 133.909v252.062L252.062 504.123 15.754 385.969v-252.06z" fill="#db5449"/><path d="M15.754 157.538v73.649l235.52 115.397 237.095-115.791v-73.255L252.062 273.33 15.754 157.538z" fill="#c54b42"/><path d="M252.062 504.123v-252.06L31.508 141.786H15.754v244.185l236.308 118.152z" fill="#d05045"/><path d="M15.754 157.538v73.649l235.52 115.397.788-.394v-73.255.394L15.754 157.538z" fill="#bb483e"/><path d="M0 125.638L252.062.001l252.062 125.637v16.542L252.062 267.815 0 142.573v-16.935z" fill="#eb6258"/><path d="M396.603 39.779c-8.271-14.966-25.994-24.025-46.868-24.025-47.655 0-81.132 44.505-97.674 72.862-16.542-28.357-50.412-72.468-97.674-72.468-30.326 0-51.988 18.511-51.988 43.717 0 44.898 49.231 74.043 148.086 74.043s151.237-37.415 151.237-73.649c.001-7.089-1.574-14.178-5.119-20.48zM164.628 88.223c-11.028-7.483-14.966-15.754-14.966-21.268 0-6.695 6.302-11.815 15.36-11.815 21.268 0 38.203 27.963 47.655 47.262-24.812-1.97-39.385-8.666-48.049-14.179zm174.867 0c-8.665 5.514-23.237 12.209-48.049 14.178 9.058-19.298 25.994-47.262 47.655-47.262 9.058 0 15.36 5.12 15.36 11.815.001 5.515-3.938 13.785-14.966 21.269z" fill="#efefef"/><path d="M0 126.032l252.062 123.274 252.062-123.274v81.526l-252.85 123.274L0 207.558v-81.526z" fill="#e2574c"/><path d="M346.585 213.859v-9.058l-94.523-51.2-94.523 51.2v9.058L94.524 186.29v-12.603l154.387-81.526 3.151 1.575 3.151-1.575L409.6 173.293v12.603l-63.015 27.963z" fill="#efefef"/><path d="M346.585 204.801v251.668l63.015-31.508V173.293l-63.015 31.508z" fill="#dcdcdc"/><path d="M94.523 425.354l63.015 31.508V205.195l-63.015-31.902v252.061z" fill="#d1d1d1"/></symbol><symbol id="guarant" viewBox="0 0 512 512"><path d="M341.333 281.6c-28.237 0-51.2 22.963-51.2 51.2 0 28.237 22.963 51.2 51.2 51.2 28.237 0 51.2-22.963 51.2-51.2 0-28.237-22.963-51.2-51.2-51.2zm0 85.333c-18.825 0-34.133-15.309-34.133-34.133 0-18.825 15.309-34.133 34.133-34.133 18.825 0 34.133 15.309 34.133 34.133.001 18.825-15.308 34.133-34.133 34.133z"/><path d="M358.4 366.933v35.26l-12.339-8.226a8.495 8.495 0 0 0-9.464 0l-12.331 8.226v-35.26H307.2v51.2a8.535 8.535 0 1 0 13.269 7.099l20.864-13.909 20.864 13.909a8.544 8.544 0 0 0 8.764.427 8.538 8.538 0 0 0 4.506-7.526v-51.2H358.4zM196.267 85.333H307.2V102.4H196.267zM119.467 136.533h273.067V153.6H119.467zM119.467 187.733H307.2V204.8H119.467zM341.333 187.733h51.2V204.8h-51.2zM119.467 238.933h273.067V256H119.467zM119.467 290.133h102.4V307.2h-102.4zM119.467 332.8h42.667v17.067h-42.667zM196.267 332.8h25.6v17.067h-25.6zM469.333 0c-23.526 0-42.667 19.14-42.667 42.667v17.067a8.53 8.53 0 0 0 8.533 8.533h68.267a8.53 8.53 0 0 0 8.533-8.533V42.667C512 19.14 492.86 0 469.333 0zm25.6 51.2h-51.2v-8.533c0-14.114 11.486-25.6 25.6-25.6s25.6 11.486 25.6 25.6V51.2z"/><path d="M469.333 0h-358.4C87.407 0 68.267 19.14 68.267 42.667v409.6h17.067v-409.6c0-14.114 11.486-25.6 25.6-25.6h324.284a42.443 42.443 0 0 0-8.55 25.6v426.667c0 14.114-11.486 25.6-25.6 25.6H76.8V512h324.267c23.526 0 42.667-19.14 42.667-42.667V42.667c0-14.114 11.486-25.6 25.6-25.6 4.719 0 8.533-3.823 8.533-8.533S474.052 0 469.333 0z"/><path d="M401.067 494.933c-14.114 0-25.6-11.486-25.6-25.6v-17.067a8.525 8.525 0 0 0-8.533-8.533H8.533A8.53 8.53 0 0 0 0 452.266v17.067C0 492.86 19.14 512 42.667 512h358.4a8.525 8.525 0 0 0 8.533-8.533 8.526 8.526 0 0 0-8.533-8.534zm-358.4 0c-14.114 0-25.6-11.486-25.6-25.6V460.8H358.4v8.533c0 9.6 3.183 18.466 8.55 25.6H42.667z"/></symbol><symbol id="icon-facebook" viewBox="0 0 8.7 18.9"><path d="M6.3 3.4h2.4V0H5.8C2.7.2 1.5 2.4 1.9 6.1H0v3.5h2v9.3h3.8V9.6h2.9V6.1H5.8c0-1 0-2.4.5-2.7z"/></symbol><symbol id="icon-gift" viewBox="0 0 63 75.084"><path d="M60.165 22.23H35.758c13.604-6.815 14.688-11.115 14.188-13.52-1.145-3.916-5.604-6.938-9.848-5.341-5.484 2.063-7.029 10.262-8.514 16.19-1.894-5.998-3.726-13.649-8.011-17.525C22.331.909 20.524-.203 17.897.031c-3.965.352-9.652 5.317-7.344 10.849 2.217 5.313 9.539 8.67 14.354 11.35H2.834A2.843 2.843 0 0 0 0 25.065V36.25a2.842 2.842 0 0 0 2.835 2.834h.27v35.999h56.958V39.084h.104a2.842 2.842 0 0 0 2.835-2.834V25.065a2.846 2.846 0 0 0-2.837-2.835zM41.766 5.873c2.07-.306 4.907 1.283 5.176 3.171.386 2.723-3.349 5.192-5.008 6.343-2.484 1.723-4.853 2.611-7.178 4.006.872-3.645 2.512-12.854 7.01-13.52zm-22.534 9.848c-2.19-1.467-6.444-4.378-6.342-7.678.11-3.552 5.655-6.491 8.68-3.839 3.797 3.331 5.625 10.972 7.01 16.357-3.199-1.519-6.23-2.753-9.348-4.84zm5.882 56.426H6.042V39.084h19.072v33.063zm0-36.063H3V25.23h22.114v10.854zm10.001 36.062h-7.063V25.23h7.063v46.916zm22.01.001H38.053V39.084h19.072v33.063zM60 36.084H38.053V25.23H60v10.854z"/></symbol><symbol id="icon-house" viewBox="0 0 74.695 72.346"><path d="M29.503 65.345h16V41.407h-16v23.938zm13.063-2.938H32.441V44.345h10.125v18.062z"/><path d="M72.62 39.44l2.075-2.078-9.907-9.913V.47H50.974v13.161L37.349 0 0 37.363l2.077 2.078 7.832-7.832v37.799H5.971v2.938h63.875v-2.938h-5.059v-37.8l7.833 7.832zM53.913 3.408h7.938v21.104l-7.938-7.94V3.408zm7.937 65.999H12.846V28.671L37.348 4.169 61.85 28.671v40.736z"/><path d="M29.753 27.21a7.75 7.75 0 1 0 15.5 0 7.75 7.75 0 0 0-15.5 0zm7.75-4.969a4.97 4.97 0 1 1 0 9.941 4.97 4.97 0 0 1 0-9.941zM16.909 41.407h3v3.938h-3zM22.846 41.407h3v3.938h-3zM16.909 47.407h3v3.938h-3zM22.846 47.407h3v3.938h-3zM48.846 41.407h3v3.938h-3zM54.784 41.407h3v3.938h-3zM48.846 47.407h3v3.938h-3zM54.784 47.407h3v3.938h-3z"/></symbol><symbol id="icon-like" viewBox="0 0 22 20"><path d="M12.383 3.646l-.637 2.929L11.219 9H19.9v2l.001.058L17 18H8V8.029l.014-.015 4.369-4.368M2 10v8-8M13.2 0L6.6 6.6c-.4.3-.6.8-.6 1.4v10c0 1.1.9 2 2 2h9c.8 0 1.5-.5 1.8-1.2l3-7.1c.1-.2.1-.5.1-.7V9h.1c0-1.1-.9-2-2-2h-6.3l1-4.6v-.3c0-.4-.2-.8-.4-1.1l-1.1-1zM4 8H0v12h4V8zm18 1v.044V9z"/></symbol><symbol id="icon-mail" viewBox="0 0 16 16"><path d="M8 10c-.266 0-.5-.094-1-.336L0 6v7c0 .55.45 1 1 1h14c.55 0 1-.45 1-1V6L9 9.664c-.5.242-.734.336-1 .336zm7-8H1c-.55 0-1 .45-1 1v.758l8 4.205 8-4.205V3c0-.55-.45-1-1-1z"/></symbol><symbol id="icon-phone" viewBox="0 0 18 18"><path fill="#010101" d="M3.6 7.8c1.4 2.8 3.8 5.1 6.6 6.6l2.2-2.2c.3-.3.699-.4 1-.2 1.1.4 2.3.6 3.6.6.6 0 1 .4 1 1V17c0 .6-.4 1-1 1C7.6 18 0 10.4 0 1c0-.6.4-1 1-1h3.5c.6 0 1 .4 1 1 0 1.2.2 2.4.6 3.6.1.3 0 .7-.2 1L3.6 7.8z"/></symbol><symbol id="icon-tick" viewBox="0 0 23.049 16.249"><path d="M22.801 1.299L21.75.248a.853.853 0 0 0-1.203 0L8.693 12.102 2.502 5.911a.853.853 0 0 0-1.203 0L.248 6.962a.852.852 0 0 0 0 1.202l7.837 7.837a.845.845 0 0 0 .608.246c.22.002.44-.079.608-.246l13.5-13.5a.852.852 0 0 0 0-1.202z"/></symbol><symbol id="icon-twitter" viewBox="0 0 17.5 14.663"><path fill-rule="evenodd" clip-rule="evenodd" d="M11.283.153c1.736-.484 3.074.264 3.685 1.15.694-.225 1.372-.47 2.072-.69-.004.841-.538 1.478-.883 1.728.704.165 1.343-.481 1.343-.481-.175.977-1.035 1.746-1.611 1.977-.239 6.592-3.272 10.956-10.382 10.823h-.46c-.422 0-4.29-.45-5.047-1.843 2.341.192 4.011-.412 4.835-1.15-.989-.293-2.761-.464-3.07-2.881.362.105.583.223 1.228.117C1.757 8.067.385 7.366.461 5.218c.294.319 1.1.523 1.381.461C1.117 5.444-.188 2.398.921.843 2.794 2.655 4.769 4.364 8.29 4.528c.216-2.24 1.171-3.74 2.993-4.375z"/></symbol><symbol id="icon-youtube" viewBox="0 0 19.979 14.015"><path d="M17.145 0H2.835A2.842 2.842 0 0 0 0 2.835v8.345a2.842 2.842 0 0 0 2.835 2.835h14.31a2.842 2.842 0 0 0 2.835-2.835V2.835A2.844 2.844 0 0 0 17.145 0zM7.036 10.392V3.623l6.769 3.384-6.769 3.385z"/></symbol><symbol id="notebook" viewBox="0 0 443.139 443.139"><path d="M341.014.003H39.648c-.039 0-.077-.003-.116-.003-6.637 0-12.875 2.583-17.565 7.274-4.698 4.697-7.285 10.939-7.285 17.576v329.639a5 5 0 0 0 5 5h16.69v78.65a5 5 0 0 0 5 5h299.99a5 5 0 0 0 5-5v-14.157h14.496a5 5 0 0 0 5-5V24.847c0-13.699-11.145-24.844-24.844-24.844zM64.374 390.984h291.485v6.499H64.374v-6.499zm0-10V58h291.485v322.983H64.374zM36.373 36.5v312.989h-11.69V24.85c0-3.965 1.547-7.696 4.356-10.505A14.74 14.74 0 0 1 39.53 10v.003h.061c8.156.032 14.783 6.678 14.783 14.847v6.65h-13a5 5 0 0 0-5.001 5zm299.989 396.639H46.373V41.5h8l.001 377.482a5 5 0 0 0 5 5h276.989v9.157zM64.374 413.982v-6.499h291.485v6.499H64.374zM355.858 48H64.374V24.847h-.001a24.725 24.725 0 0 0-4.933-14.844h281.574c8.186 0 14.845 6.659 14.845 14.844V48z"/><path d="M92.622 126.997a5 5 0 0 0 5 5c2.842 0 4.008.996 6.125 2.803 2.569 2.193 6.088 5.197 12.618 5.197s10.049-3.004 12.619-5.197c2.118-1.808 3.284-2.803 6.127-2.803 2.844 0 4.011.996 6.129 2.803 2.57 2.193 6.089 5.197 12.62 5.197s10.049-3.004 12.619-5.197c2.118-1.808 3.284-2.803 6.126-2.803 2.844 0 4.01.996 6.128 2.803 2.569 2.193 6.089 5.197 12.619 5.197s10.05-3.003 12.62-5.197c2.118-1.808 3.285-2.803 6.128-2.803 2.844 0 4.011.996 6.129 2.803 2.57 2.193 6.09 5.197 12.621 5.197 6.53 0 10.049-3.004 12.619-5.197 2.118-1.808 3.284-2.803 6.126-2.803 2.845 0 4.012.996 6.13 2.804 2.57 2.193 6.09 5.196 12.622 5.196s10.051-3.003 12.621-5.196c2.119-1.808 3.286-2.804 6.131-2.804 2.846 0 4.013.996 6.132 2.804 2.57 2.193 6.091 5.196 12.623 5.196s10.052-3.003 12.623-5.196c2.119-1.808 3.287-2.804 6.133-2.804a5 5 0 0 0 0-10c-6.532 0-10.052 3.003-12.623 5.196-2.119 1.808-3.287 2.804-6.132 2.804s-4.013-.996-6.132-2.804c-2.57-2.193-6.091-5.196-12.623-5.196s-10.052 3.003-12.622 5.196c-2.119 1.808-3.286 2.804-6.13 2.804s-4.012-.996-6.13-2.804c-2.57-2.193-6.09-5.196-12.622-5.196-6.53 0-10.049 3.004-12.619 5.197-2.118 1.808-3.284 2.803-6.126 2.803-2.844 0-4.011-.996-6.129-2.803-2.57-2.193-6.09-5.197-12.621-5.197s-10.05 3.003-12.62 5.197c-2.118 1.808-3.285 2.803-6.128 2.803s-4.01-.996-6.127-2.803c-2.57-2.193-6.089-5.197-12.62-5.197-6.53 0-10.049 3.004-12.619 5.197-2.118 1.808-3.284 2.803-6.127 2.803s-4.01-.996-6.128-2.803c-2.57-2.193-6.089-5.197-12.62-5.197-6.53 0-10.049 3.004-12.619 5.197-2.118 1.808-3.284 2.803-6.126 2.803-2.842 0-4.009-.996-6.126-2.803-2.569-2.193-6.088-5.197-12.618-5.197a5 5 0 0 0-5.001 5zM322.61 157.745c-6.532 0-10.052 3.003-12.623 5.196-2.119 1.808-3.287 2.804-6.132 2.804s-4.013-.996-6.132-2.804c-2.57-2.193-6.091-5.196-12.623-5.196s-10.052 3.003-12.622 5.196c-2.119 1.808-3.286 2.804-6.13 2.804s-4.012-.996-6.13-2.804c-2.57-2.193-6.09-5.196-12.622-5.196-6.53 0-10.049 3.004-12.619 5.197-2.118 1.808-3.284 2.803-6.126 2.803-2.844 0-4.011-.996-6.129-2.803-2.57-2.193-6.09-5.197-12.621-5.197s-10.05 3.003-12.62 5.197c-2.118 1.808-3.285 2.803-6.128 2.803s-4.01-.996-6.127-2.803c-2.57-2.193-6.089-5.197-12.62-5.197-6.53 0-10.049 3.004-12.619 5.197-2.118 1.808-3.284 2.803-6.127 2.803s-4.01-.996-6.128-2.803c-2.57-2.193-6.089-5.197-12.62-5.197-6.53 0-10.049 3.004-12.619 5.197-2.118 1.808-3.284 2.803-6.126 2.803-2.842 0-4.009-.996-6.126-2.803-2.569-2.193-6.088-5.197-12.618-5.197a5 5 0 0 0 0 10c2.842 0 4.008.996 6.125 2.803 2.569 2.193 6.088 5.197 12.618 5.197s10.049-3.004 12.619-5.197c2.118-1.808 3.284-2.803 6.127-2.803 2.844 0 4.011.996 6.129 2.803 2.57 2.193 6.089 5.197 12.62 5.197s10.049-3.004 12.619-5.197c2.118-1.808 3.284-2.803 6.126-2.803 2.844 0 4.01.996 6.128 2.803 2.569 2.193 6.089 5.197 12.619 5.197s10.05-3.003 12.62-5.197c2.118-1.808 3.285-2.803 6.128-2.803 2.844 0 4.011.996 6.129 2.803 2.57 2.193 6.09 5.197 12.621 5.197 6.53 0 10.049-3.004 12.619-5.197 2.118-1.808 3.284-2.803 6.126-2.803 2.845 0 4.012.996 6.13 2.804 2.57 2.193 6.09 5.196 12.622 5.196s10.051-3.003 12.621-5.196c2.119-1.808 3.286-2.804 6.131-2.804 2.846 0 4.013.996 6.132 2.804 2.57 2.193 6.091 5.196 12.623 5.196s10.052-3.003 12.623-5.196c2.119-1.808 3.287-2.804 6.133-2.804a5 5 0 0 0-.001-10zM322.61 193.493c-6.532 0-10.052 3.003-12.623 5.196-2.119 1.808-3.287 2.804-6.132 2.804s-4.013-.996-6.132-2.804c-2.57-2.193-6.091-5.196-12.623-5.196s-10.052 3.003-12.622 5.196c-2.119 1.808-3.286 2.804-6.13 2.804s-4.012-.996-6.13-2.804c-2.57-2.193-6.09-5.196-12.622-5.196-6.53 0-10.049 3.004-12.619 5.197-2.118 1.808-3.284 2.803-6.126 2.803-2.844 0-4.011-.996-6.129-2.803-2.57-2.193-6.09-5.197-12.621-5.197s-10.05 3.003-12.62 5.197c-2.118 1.808-3.285 2.803-6.128 2.803s-4.01-.996-6.127-2.803c-2.57-2.193-6.089-5.197-12.62-5.197-6.53 0-10.049 3.004-12.619 5.197-2.118 1.808-3.284 2.803-6.127 2.803s-4.01-.996-6.128-2.803c-2.57-2.193-6.089-5.197-12.62-5.197-6.53 0-10.049 3.004-12.619 5.197-2.118 1.808-3.284 2.803-6.126 2.803-2.842 0-4.009-.996-6.126-2.803-2.569-2.193-6.088-5.197-12.618-5.197a5 5 0 0 0 0 10c2.842 0 4.008.996 6.125 2.803 2.569 2.193 6.088 5.197 12.618 5.197s10.049-3.004 12.619-5.197c2.118-1.808 3.284-2.803 6.127-2.803 2.844 0 4.011.996 6.129 2.803 2.57 2.193 6.089 5.197 12.62 5.197s10.049-3.004 12.619-5.197c2.118-1.808 3.284-2.803 6.126-2.803 2.844 0 4.01.996 6.128 2.803 2.569 2.193 6.089 5.197 12.619 5.197s10.05-3.003 12.62-5.197c2.118-1.808 3.285-2.803 6.128-2.803 2.844 0 4.011.996 6.129 2.803 2.57 2.193 6.09 5.197 12.621 5.197 6.53 0 10.049-3.004 12.619-5.197 2.118-1.808 3.284-2.803 6.126-2.803 2.845 0 4.012.996 6.13 2.804 2.57 2.193 6.09 5.196 12.622 5.196s10.051-3.003 12.621-5.196c2.119-1.808 3.286-2.804 6.131-2.804 2.846 0 4.013.996 6.132 2.804 2.57 2.193 6.091 5.196 12.623 5.196s10.052-3.003 12.623-5.196c2.119-1.808 3.287-2.804 6.133-2.804a5 5 0 0 0-.001-10zM327.61 234.241a5 5 0 0 0-5-5c-6.532 0-10.052 3.003-12.623 5.196-2.119 1.808-3.287 2.804-6.132 2.804s-4.013-.996-6.132-2.804c-2.57-2.193-6.091-5.196-12.623-5.196s-10.052 3.003-12.622 5.196c-2.119 1.808-3.286 2.804-6.13 2.804s-4.012-.996-6.13-2.804c-2.57-2.193-6.09-5.196-12.622-5.196-6.53 0-10.049 3.004-12.619 5.197-2.118 1.808-3.284 2.803-6.126 2.803-2.844 0-4.011-.996-6.129-2.803-2.57-2.193-6.09-5.197-12.621-5.197s-10.05 3.003-12.62 5.197c-2.118 1.808-3.285 2.803-6.128 2.803s-4.01-.996-6.127-2.803c-2.57-2.193-6.089-5.197-12.62-5.197-6.53 0-10.049 3.004-12.619 5.197-2.118 1.808-3.284 2.803-6.127 2.803s-4.01-.996-6.128-2.803c-2.57-2.193-6.089-5.197-12.62-5.197-6.53 0-10.049 3.004-12.619 5.197-2.118 1.808-3.284 2.803-6.126 2.803-2.842 0-4.009-.996-6.126-2.803-2.569-2.193-6.088-5.197-12.618-5.197a5 5 0 0 0 0 10c2.842 0 4.008.996 6.125 2.803 2.569 2.193 6.088 5.197 12.618 5.197s10.049-3.004 12.619-5.197c2.118-1.808 3.284-2.803 6.127-2.803 2.844 0 4.011.996 6.129 2.803 2.57 2.193 6.089 5.197 12.62 5.197s10.049-3.004 12.619-5.197c2.118-1.808 3.284-2.803 6.126-2.803 2.844 0 4.01.996 6.128 2.803 2.569 2.193 6.089 5.197 12.619 5.197s10.05-3.003 12.62-5.197c2.118-1.808 3.285-2.803 6.128-2.803 2.844 0 4.011.996 6.129 2.803 2.57 2.193 6.09 5.197 12.621 5.197 6.53 0 10.049-3.004 12.619-5.197 2.118-1.808 3.284-2.803 6.126-2.803 2.845 0 4.012.996 6.13 2.804 2.57 2.193 6.09 5.196 12.622 5.196s10.051-3.003 12.621-5.196c2.119-1.808 3.286-2.804 6.131-2.804 2.846 0 4.013.996 6.132 2.804 2.57 2.193 6.091 5.196 12.623 5.196s10.052-3.003 12.623-5.196c2.119-1.808 3.287-2.804 6.133-2.804a5 5 0 0 0 4.999-5zM228.851 272.989c-2.844 0-4.011-.996-6.129-2.803-2.57-2.193-6.09-5.197-12.621-5.197s-10.05 3.003-12.62 5.197c-2.118 1.808-3.285 2.803-6.128 2.803s-4.01-.996-6.127-2.803c-2.57-2.193-6.089-5.197-12.62-5.197-6.53 0-10.049 3.004-12.619 5.197-2.118 1.808-3.284 2.803-6.127 2.803s-4.01-.996-6.128-2.803c-2.57-2.193-6.089-5.197-12.62-5.197-6.53 0-10.049 3.004-12.619 5.197-2.118 1.807-3.284 2.803-6.126 2.803s-4.009-.996-6.126-2.803c-2.569-2.193-6.088-5.197-12.618-5.197a5 5 0 0 0 0 10c2.842 0 4.008.996 6.125 2.803 2.569 2.193 6.088 5.197 12.618 5.197s10.049-3.004 12.619-5.197c2.118-1.808 3.284-2.803 6.127-2.803 2.844 0 4.011.996 6.129 2.803 2.57 2.193 6.089 5.197 12.62 5.197s10.049-3.004 12.619-5.197c2.118-1.807 3.284-2.803 6.126-2.803 2.844 0 4.01.996 6.128 2.803 2.569 2.193 6.089 5.197 12.619 5.197 6.531 0 10.05-3.003 12.62-5.197 2.118-1.808 3.285-2.803 6.128-2.803 2.844 0 4.011.996 6.129 2.803 2.57 2.193 6.09 5.197 12.621 5.197a5 5 0 0 0 0-10zM185.367 31.501H77.373a5 5 0 0 0 0 10h107.995a5 5 0 0 0-.001-10zM219.565 31.501h-14.999a5 5 0 0 0 0 10h14.999a5 5 0 0 0 0-10zM76.172 63a5 5 0 0 0-5 5v49.729a5 5 0 0 0 10 0V68a5 5 0 0 0-5-5zM97.671 81.729V68a5 5 0 0 0-10 0v13.729a5 5 0 0 0 10 0zM341.359 262.49a5 5 0 0 0-5 5v103.495a5 5 0 0 0 10 0V267.49a5 5 0 0 0-5-5zM324.86 311.987a5 5 0 0 0-5 5v8.075a5 5 0 0 0 10 0v-8.075a5 5 0 0 0-5-5zM324.86 335.129a5 5 0 0 0-5 5v30.855a5 5 0 0 0 10 0v-30.855a5 5 0 0 0-5-5zM428.166 64.975L413.52 23.947a5 5 0 0 0-9.418 0l-14.645 41.028a5.012 5.012 0 0 0-.291 1.681v350.617c0 10.833 8.813 19.645 19.645 19.645s19.646-8.813 19.646-19.645V66.656c0-.573-.099-1.142-.291-1.681zm-19.354-24.474l7.552 21.155H401.26l7.552-21.155zm-9.645 344.963V71.656h19.291v313.808h-19.291zm19.29 10v4h-19.291v-4h19.291zm-9.645 31.453c-5.318 0-9.645-4.327-9.645-9.645v-7.809h19.291v7.809c-.001 5.319-4.328 9.645-9.646 9.645z"/></symbol><symbol id="pay" viewBox="0 0 484.88 484.88"><path d="M405.52 344.525l-27.12-27.6a8 8 0 0 0-10.4-.88l-118.16 87.04-41.84-19.68 36.72-4.08a8 8 0 0 0 7.04-8v-34.56a8 8 0 0 0-8-8h-40l-67.36-6.88a8.003 8.003 0 0 0-4 .64l-45.92 19.68H0v16h88.16a7.995 7.995 0 0 0 3.2-.64l45.52-19.92 65.68 6.72h33.52v19.84l-29.6 3.68-42.96-4.56a8 8 0 0 0-8.48 5.84 8 8 0 0 0 4.24 9.36l88.72 40.8a7.999 7.999 0 0 0 8-.8l116.32-85.44 16 16.64-133.68 116.8H218.4l-127.6-47.44a7.997 7.997 0 0 0-2.8-.56H0v16h86.64l127.52 47.52a8 8 0 0 0 2.8.48h40.64a8 8 0 0 0 5.28-2l142.24-124.32a8 8 0 0 0 .4-11.68zM426.8 202.525l-42.24-43.92a7.998 7.998 0 0 0-5.12-2.48l-86.4-8h-32.96l1.6-24 31.28-6.32 43.68 9.76c.9.155 1.82.155 2.72 0l42.48-5.04-1.92-16-41.12 4.4-44-9.76a6.554 6.554 0 0 0-3.28 0l-38.96 8a8 8 0 0 0-6.48 7.36l-2.56 38.96a8 8 0 0 0 8 8.48h40.8l82.72 7.52 42.56 44.56a8.001 8.001 0 0 0 5.76 2.48H480v-16h-53.2zM412.88 35.965a7.116 7.116 0 0 0-3.04-1.44l-136-32a8 8 0 0 0-6.56 1.52l-88 64 9.44 12.96 85.04-61.84 130.72 30.72 70.64 54.96 9.76-12.88-72-56z"/><path d="M282.96 51.405a7.998 7.998 0 0 0-6.56 0l-48 24 7.2 14.24 44.8-22.32 36.64 14.96 5.92-14.88-40-16zM200.24 140.045l-14.08-2.08c-6.4-.96-10.16-3.44-10.16-7.44s5.6-8 13.12-7.6h5.76c7.52 0 13.12 4 13.12 7.6v2.16h16v-2.16c0-13.6-12.8-24-29.12-24h-5.76c-16.32 0-29.12 10.4-29.12 24 1.313 12.477 11.474 22.165 24 22.88l13.84 2.08c6.4.96 10.16 3.84 10.16 7.44 0 3.6-5.6 7.6-13.12 7.6h-5.76c-7.52 0-13.12-4-13.12-7.6v-2.16h-16v2.16c0 13.2 13.12 23.6 29.12 23.6h5.76c16.32 0 29.12-10.4 29.36-23.2-1.128-12.634-11.337-22.537-24-23.28z"/><path d="M255.44 154.925a64 64 0 0 1-36.716 49.675c-32.118 14.757-70.118.682-84.875-31.436s-.682-70.118 31.436-84.875c32.118-14.757 70.118-.682 84.875 31.436l14.48-6.72c-13.075-28.334-41.432-46.48-72.638-46.48-44.183-.001-80.001 35.816-80.001 79.999-.001 44.183 35.816 80 79.999 80.001 40.154.07 74.14-29.637 79.44-69.44l-16-2.16z"/><path d="M184 98.53h16v16h-16z"/></symbol><symbol id="plumber" viewBox="0 0 512.001 512.001"><path d="M233.333 173.248h-34.324a8.467 8.467 0 0 0 0 16.934h34.324a5.724 5.724 0 0 1 5.717 5.717v20.246a8.467 8.467 0 0 0 16.934 0v-20.246c-.001-12.49-10.162-22.651-22.651-22.651zM312.704 173.248H283.88c-4.677 0-8.467 3.791-8.467 8.467s3.79 8.467 8.467 8.467h28.824c4.677 0 8.467-3.791 8.467-8.467s-3.79-8.467-8.467-8.467zM270.266 250.111h-28.824a8.467 8.467 0 0 0 0 16.934h28.824c4.677 0 8.467-3.791 8.467-8.467s-3.79-8.467-8.467-8.467z"/><path d="M413.794 494.717h-8.329V401.23c0-38.012-18.783-73.489-50.243-94.901a114.404 114.404 0 0 0-22.27-11.809c21.079-19.131 34.347-45.439 37.111-73.85 14.688-6.743 24.521-21.666 24.521-38.156 0-15.631-8.855-29.885-22.304-37.062.085-1.206-5.198-85.035-5.198-85.035-1.67-21.688-17.052-39.465-38.275-44.235L257.717.206a8.489 8.489 0 0 0-3.713 0l-71.09 15.976c-21.223 4.77-36.606 22.546-38.276 44.235 0 0-5.295 83.831-5.209 85.038-13.446 7.178-22.3 21.431-22.3 37.061 0 16.488 9.83 31.411 24.517 38.153 2.765 28.411 16.033 54.721 37.113 73.853a114.495 114.495 0 0 0-22.271 11.809c-31.452 21.407-50.23 56.884-50.23 94.901v93.486h-8.052a8.467 8.467 0 0 0 0 16.934h106.142c.761.225 1.565.35 2.399.35h98.214c.834 0 1.638-.125 2.399-.35h106.436c4.677 0 8.467-3.791 8.467-8.467s-3.792-8.468-8.469-8.468zm-43.182-329.544c4.385 4.57 7.04 10.743 7.04 17.34 0 6.605-2.654 12.776-7.04 17.343v-34.683zm-229.511 34.679c-4.382-4.568-7.036-10.737-7.036-17.338 0-6.595 2.654-12.767 7.036-17.335v34.673zM325.097 32.705c13.921 3.127 24.008 14.787 25.106 29.013l2.629 34.139a454.021 454.021 0 0 0-19.022-3.703l-1.606-31.519c-.54-10.661-3.475-20.422-8.124-28.159l1.017.229zm-9.805 28.788l1.429 28.034a458.897 458.897 0 0 0-52.388-3.965V20.29l35.755 12.165c8.098 2.757 14.492 14.968 15.204 29.038zm-118.862.002c.721-14.07 7.115-26.283 15.2-29.039l35.769-12.167v65.273a459.085 459.085 0 0 0-52.398 3.962l1.429-28.029zm-34.906.222c1.095-14.226 11.184-25.886 25.106-29.014l1.023-.23c-4.649 7.736-7.586 17.497-8.134 28.157l-1.608 31.52a450.266 450.266 0 0 0-19.017 3.702l2.63-34.135zm-5.2 81.25c.007-.086.012-.172.016-.257l1.384-29.259c64.345-14.728 131.921-14.728 196.266 0l1.385 29.259c.003.086.009.172.016.257.251 3.215-1.246 6.138-4.004 7.819-1.313.8-4.793 2.401-8.709-.02-26.038-16.098-56.06-24.607-86.819-24.607s-60.781 8.508-86.82 24.607c-3.917 2.423-7.394.821-8.708.02-2.761-1.681-4.258-4.603-4.007-7.819zm1.71 66.571v-41.476c6.651 1.824 13.835.861 19.907-2.892 23.361-14.442 50.305-22.077 77.916-22.077 27.611 0 54.554 7.634 77.916 22.077a25.204 25.204 0 0 0 13.27 3.79c2.231 0 4.463-.303 6.637-.899v41.477c0 31.791-15.444 61.533-41.379 79.889v-19.845c0-23.218-18.889-42.108-42.108-42.108h-28.674c-23.218 0-42.108 18.889-42.108 42.108v19.843c-25.935-18.358-41.377-48.099-41.377-79.887zm108.557 97.237v-22.857a8.467 8.467 0 0 0-16.934 0v23.235c-11.577-.725-22.829-3.471-33.314-8.105v-29.467c0-13.881 11.292-25.174 25.174-25.174h28.674c13.881 0 25.174 11.292 25.174 25.174v29.463h-.001a97.14 97.14 0 0 1-28.773 7.731zm15.781 14.422v29.327c0 14.623-11.895 26.518-26.518 26.518-14.623 0-26.518-11.896-26.518-26.518v-29.327a115.083 115.083 0 0 0 53.036 0zm-117.051 173.52h-42.128v-39.782h42.128v39.782zm0-56.716h-42.128v-9.031h42.128v9.031zm.803-25.965h-42.931V401.23c0-32.407 16.009-62.652 42.824-80.903a97.521 97.521 0 0 1 18.164-9.724v60.838c0 6.98-2.575 13.677-7.25 18.859a45.006 45.006 0 0 0-10.807 21.736zm130.371 82.681h-81.281v-27.352h81.281v27.352zm0-44.286h-81.281v-10.16h81.281v10.16zm32.964 44.287h-16.03v-62.914a8.467 8.467 0 0 0-8.467-8.467h-98.214a8.467 8.467 0 0 0-8.467 8.467V494.717h-16.026v-74.214c0-6.98 2.575-13.678 7.25-18.859a45.01 45.01 0 0 0 11.61-30.201V310.4a114.087 114.087 0 0 0 11.289 5.362v34.761c0 23.96 19.493 43.451 43.451 43.451s43.451-19.493 43.451-43.451V315.76a114.466 114.466 0 0 0 11.292-5.363v61.046a45.008 45.008 0 0 0 11.61 30.201 28.108 28.108 0 0 1 7.251 18.859v74.215zm59.073-.001h-42.14v-39.782h42.14v39.782zm0-56.716h-42.14v-9.031h42.14v9.031zm0-25.965h-42.943a45.004 45.004 0 0 0-10.808-21.736 28.106 28.106 0 0 1-7.25-18.859v-60.838a97.49 97.49 0 0 1 18.164 9.724c26.824 18.257 42.837 48.5 42.837 80.903v10.806z"/><circle cx="212.223" cy="205.46" r="8.467"/><circle cx="299.656" cy="205.46" r="8.467"/></symbol><symbol id="strategy" viewBox="0 0 512.03 512.03"><path d="M512.03 256.027c.072 91.514-48.78 176.087-128.088 221.749a232.536 232.536 0 0 1-33.368 16.154 250.313 250.313 0 0 1-76.888 17.39c-5.826.53-11.741.706-17.655.706-5.914 0-11.829-.177-17.655-.707a250.313 250.313 0 0 1-76.888-17.39 232.536 232.536 0 0 1-33.368-16.154C20.493 415.694-27.016 285.295 15.449 168.53S178.092-17.65 300.454 3.91 512.031 131.78 512.03 256.027z" fill="#3f5c6c"/><g fill="#af8066"><path d="M273.685 391.796V511.32c-5.826.53-11.741.707-17.655.707-5.914 0-11.829-.177-17.655-.707V391.796h35.31zM222.926 391.796l-61.44 102.135a232.536 232.536 0 0 1-33.368-16.154l58.703-98.163 36.105 12.182zM383.941 477.776a232.536 232.536 0 0 1-33.368 16.154l-61.44-102.135 36.105-12.182 58.703 98.163z"/></g><path d="M61.823 17.682h388.414v317.793c0 9.751-7.905 17.655-17.655 17.655H79.478c-9.751 0-17.655-7.905-17.655-17.655V17.682z" fill="#cbb292"/><path d="M185.409 353.131H326.65v26.483c0 9.751-7.904 17.655-17.655 17.655H203.064c-9.751 0-17.655-7.904-17.655-17.655v-26.483z" fill="#7f5b53"/><g fill="#cc4b4c"><path d="M324.064 240.959a8.823 8.823 0 0 0-12.482 0l-11.414 11.414-11.414-11.414a8.827 8.827 0 0 0-12.482 12.482l11.414 11.414-11.414 11.414a8.825 8.825 0 0 0 3.936 14.811 8.827 8.827 0 0 0 8.547-2.329l11.414-11.414 11.414 11.414a8.827 8.827 0 0 0 12.482-12.482l-11.414-11.414 11.414-11.414a8.823 8.823 0 0 0-.001-12.482zM143.857 191.648a8.823 8.823 0 0 0 12.482 0l11.414-11.414 11.414 11.414a8.827 8.827 0 0 0 12.482-12.482l-11.414-11.414 11.414-11.414a8.827 8.827 0 0 0-12.482-12.482l-11.414 11.414-11.414-11.414a8.827 8.827 0 0 0-12.482 12.482l11.414 11.414-11.414 11.414a8.823 8.823 0 0 0 0 12.482z"/></g><path d="M291.555 178.01a8.825 8.825 0 0 0 11.211 5.5 8.827 8.827 0 0 0 5.496-11.207l-8.569-25.06c-.064-.186-.215-.321-.291-.501a8.673 8.673 0 0 0-.896-1.544 17.72 17.72 0 0 0-3.279-3.024c-.185-.09-.396-.079-.585-.156-.186-.077-.316-.227-.51-.292a8.212 8.212 0 0 0-1.095-.137 8.586 8.586 0 0 0-1.757-.22 8.48 8.48 0 0 0-1.781.238 8.92 8.92 0 0 0-1.018.136l-25.056 8.569a8.83 8.83 0 0 0 5.715 16.707l4.255-1.456a112.308 112.308 0 0 1-63.932 46.663c-67.413 19.267-68.194 95.991-68.194 96.767a8.828 8.828 0 0 0 17.656 0c0-.638.634-64.147 55.392-79.785a129.45 129.45 0 0 0 75.474-56.355l1.764 5.157z" fill="#e6e7e8"/><path d="M393.34 72.131a8.823 8.823 0 0 0-12.241 2.448l-29.336 44.009-10.043-10.043a8.826 8.826 0 0 0-12.482 12.482l17.655 17.655a8.819 8.819 0 0 0 7.112 2.543 8.83 8.83 0 0 0 6.474-3.888l35.31-52.966a8.83 8.83 0 0 0-2.449-12.24z" fill="#14a085"/><path d="M44.168.027h423.724c9.751 0 17.655 7.904 17.655 17.655 0 9.751-7.904 17.655-17.655 17.655H44.168c-9.751 0-17.655-7.904-17.655-17.655C26.512 7.932 34.417.027 44.168.027z" fill="#7f5b53"/></symbol></svg>